Coordinates
version=1
nRows=13
nColumns=40
inDegrees=yes

Units are S.I. units (second, meters, Newtons, ...)
Angles are in degrees.

endheader
time	pelvis_tilt	pelvis_list	pelvis_rotation	pelvis_tx	pelvis_ty	pelvis_tz	hip_flexion_r	hip_adduction_r	hip_rotation_r	knee_angle_r	knee_angle_r_beta	ankle_angle_r	subtalar_angle_r	mtp_angle_r	hip_flexion_l	hip_adduction_l	hip_rotation_l	knee_angle_l	knee_angle_l_beta	ankle_angle_l	subtalar_angle_l	mtp_angle_l	lumbar_extension	lumbar_bending	lumbar_rotation	arm_flex_r	arm_add_r	arm_rot_r	elbow_flex_r	pro_sup_r	wrist_flex_r	wrist_dev_r	arm_flex_l	arm_add_l	arm_rot_l	elbow_flex_l	pro_sup_l	wrist_flex_l	wrist_dev_l
      6.63000000	     -1.72544050	     -4.97640887	      2.54750332	      1.07338984	      0.92933488	      0.50381360	     12.45655328	      2.13943719	    -13.81379730	     20.29204766	     20.29204766	     11.48479258	     -0.34572551	     -3.47764723	     26.64855403	    -14.12947197	      1.06021494	     62.77809772	     62.77809772	      8.87961520	    -16.65505942	      8.88380639	    -10.78383033	      5.50791432	      1.05348038	     10.56844750	    -23.06040488	     -5.75384911	     72.80796554	     45.51750188	      0.00000000	      0.00000000	      5.04925131	    -12.31943636	     -7.82078795	     41.65726499	     45.68951838	      0.00000000	      0.00000000
      6.64414286	     -1.82463673	     -4.76802785	      3.12320126	      1.07193292	      0.93029257	      0.50422872	     11.79885220	      2.02499476	    -14.18529567	     19.50494618	     19.50494618	     11.53133311	     -0.26311666	     -3.44265203	     27.95653772	    -13.76505353	      1.02923832	     60.51924065	     60.51924065	      9.00171541	    -17.07439834	      8.80237960	    -10.81714466	      5.37595375	      1.06687136	     12.50231466	    -23.11057709	     -5.92605396	     74.25681396	     45.48204810	      0.00000000	      0.00000000	      4.49282600	    -12.29354468	     -7.84898339	     40.97911159	     45.69531677	      0.00000000	      0.00000000
      6.65828571	     -1.99610281	     -4.55341212	      3.61844390	      1.07047317	      0.93102143	      0.50470684	     11.25714174	      1.92120638	    -14.44239348	     18.78277937	     18.78277937	     11.58725113	     -0.25930857	     -3.42440837	     29.14725655	    -13.42996288	      0.79112206	     57.96489874	     57.96489874	      9.15880426	    -17.21809621	      8.84317395	    -10.72511122	      5.19038424	      1.40719648	     14.41200644	    -23.48138181	     -6.13716129	     75.45126188	     45.45761412	      0.00000000	      0.00000000	      4.01926804	    -12.15801913	     -7.86047016	     40.51702376	     45.69535755	      0.00000000	      0.00000000
      6.67242857	     -2.03837616	     -4.39251798	      4.19555329	      1.06909150	      0.93193476	      0.50497271	     10.45859926	      1.89101071	    -14.83880770	     17.83641123	     17.83641123	     11.52982081	     -0.16580659	     -3.52979078	     29.97695591	    -13.02132295	      0.66838903	     54.99435039	     54.99435039	      9.16910001	    -17.36533363	      8.77802670	    -10.81925367	      5.14902159	      1.34748012	     16.43916147	    -23.55373044	     -6.16554673	     77.15211032	     45.41055242	      0.00000000	      0.00000000	      3.48975811	    -12.13549579	     -7.96336093	     39.69343386	     45.70925124	      0.00000000	      0.00000000
      6.68657143	     -2.15528482	     -4.19502105	      4.70768861	      1.06761420	      0.93263242	      0.50514512	      9.81596905	      1.80732676	    -15.19618350	     17.01066053	     17.01066053	     11.48021247	     -0.14988099	     -3.67009862	     30.69487732	    -12.55725491	      0.40185457	     51.72624556	     51.72624556	      9.12043268	    -17.33018040	      8.84307570	    -10.90433260	      5.05839318	      1.47436188	     18.37740142	    -23.76925392	     -6.22069087	     78.54441401	     45.37481440	      0.00000000	      0.00000000	      3.05810730	    -12.04136601	     -8.06397457	     38.98772307	     45.72263186	      0.00000000	      0.00000000
      6.70071429	     -2.29733382	     -4.09155836	      5.18396146	      1.06621420	      0.93303186	      0.50525662	      9.27457682	      1.80768322	    -15.46793880	     16.31335993	     16.31335993	     11.44335044	     -0.07555299	     -3.87929399	     31.25938415	    -12.07349506	      0.33828136	     48.20509962	     48.20509962	      9.20670211	    -17.04581278	      8.84320168	    -10.86103300	      5.02207477	      1.68169622	     20.29958143	    -23.95593968	     -6.26174557	     79.81828532	     45.34277365	      0.00000000	      0.00000000	      2.66173914	    -11.96957128	     -8.17551191	     38.28765074	     45.73713910	      0.00000000	      0.00000000
      6.71485714	     -2.44847328	     -3.99854002	      5.63733943	      1.06474951	      0.93330104	      0.50518022	      8.76588102	      1.80224882	    -15.78743723	     15.64244300	     15.64244300	     11.40957950	     -0.01804857	     -4.11809296	     31.67923818	    -11.57052405	      0.22826893	     44.45139918	     44.45139918	      9.20059871	    -16.52972070	      8.82408258	    -10.87101559	      5.02660932	      1.83871766	     22.22043874	    -24.06926261	     -6.27627672	     81.04735464	     45.31163807	      0.00000000	      0.00000000	      2.28831787	    -11.88806824	     -8.28394375	     37.54876015	     45.75128956	      0.00000000	      0.00000000
      6.72900000	     -2.63760971	     -3.93890895	      6.05479506	      1.06328675	      0.93335486	      0.50496947	      8.34534480	      1.81315899	    -16.09806170	     15.04868155	     15.04868155	     11.39348483	      0.04320560	     -4.36968662	     31.99118638	    -11.07503472	      0.12875108	     40.54534715	     40.54534715	      9.16442256	    -15.69033104	      8.77563597	    -10.85380247	      5.06892420	      2.01056609	     24.13522991	    -24.15005930	     -6.28181144	     82.18994960	     45.28328549	      0.00000000	      0.00000000	      1.93382649	    -11.78485439	     -8.37790413	     36.82726788	     45.76335570	      0.00000000	      0.00000000
      6.74314286	     -2.79201834	     -3.94681603	      6.44525852	      1.06194255	      0.93323739	      0.50458746	      7.83235442	      1.88925299	    -16.51506213	     14.31235243	     14.31235243	     10.95388031	      0.20386921	     -5.89417870	     32.01955629	    -10.61530367	      0.06639480	     36.28385768	     36.28385768	      8.02768890	    -14.96463034	      6.06693956	    -10.81499904	      5.22354346	      2.04678801	     26.25296776	    -24.27868393	     -5.56678692	     83.18782827	     45.24234868	      0.00000000	      0.00000000	      2.02308311	    -11.48037989	     -9.36478220	     34.77615256	     45.93027597	      0.00000000	      0.00000000
      6.75728571	     -3.02857923	     -3.95344830	      6.75639639	      1.06057493	      0.93290045	      0.50421207	      7.57302172	      1.94390725	    -16.67644619	     13.92561302	     13.92561302	     11.08091642	      0.15870684	     -5.92639796	     32.15628773	    -10.15061029	      0.04378299	     32.37051545	     32.37051545	      8.09299950	    -13.49054244	      6.50722670	    -10.71274709	      5.24074804	      2.35553176	     28.00678639	    -24.24914275	     -5.76704644	     84.12266447	     45.22692759	      0.00000000	      0.00000000	      1.61060539	    -11.37119332	     -9.39043170	     34.48469631	     45.93094036	      0.00000000	      0.00000000
      6.77142857	     -3.16577313	     -3.98073388	      7.04894377	      1.05935860	      0.93264778	      0.50363477	      7.16923702	      2.02030352	    -16.89414825	     13.48022956	     13.48022956	     11.18698087	      0.25992890	     -6.00572470	     32.08181803	     -9.73608990	     -0.06161941	     28.57488002	     28.57488002	      8.02438604	    -11.75566928	      6.95026090	    -10.75004177	      5.40544603	      2.49047126	     29.80366817	    -23.95655017	     -5.82798913	     85.16336058	     45.20384318	      0.00000000	      0.00000000	      1.17447547	    -11.32928724	     -9.41163237	     33.98433110	     45.93131411	      0.00000000	      0.00000000
      6.78557143	     -3.43858288	     -4.36465441	      7.33494661	      1.05809626	      0.93174673	      0.50306208	      7.09844083	      2.41788678	    -17.19264541	     13.30720649	     13.30720649	     11.33325922	      0.28189928	     -6.13131678	     32.39872190	     -9.62964565	      0.16909198	     25.42103344	     25.42103344	      7.94331210	    -10.18205339	      7.41002926	    -10.53498105	      5.90532672	      2.88871621	     31.49735339	    -24.04445680	     -5.98031625	     85.87286124	     45.19374047	      0.00000000	      0.00000000	      0.84024504	    -11.20236625	     -9.40336152	     33.69256181	     45.92693188	      0.00000000	      0.00000000
      6.79971429	     -3.35357820	     -4.20104682	      7.49137969	      1.05750286	      0.93184476	      0.50237836	      6.28111078	      2.34627989	    -17.33146887	     12.66057062	     12.66057062	     11.46361502	      0.66556905	     -6.25828018	     31.81774056	     -9.19051382	     -0.38427707	     22.15833777	     22.15833777	      7.77196695	     -8.12803924	      7.93986663	    -10.77527841	      5.76998354	      2.75364694	     33.20668473	    -23.16776720	     -5.74596958	     86.94764448	     45.15982952	      0.00000000	      0.00000000	      0.34458649	    -11.28285006	     -9.41069785	     32.82996971	     45.92605650	      0.00000000	      0.00000000
